<mxfile host="app.diagrams.net" modified="2024-02-01T12:18:26.591Z" agent="Mozilla/5.0 (Windows NT 10.0; Win64; x64) AppleWebKit/537.36 (KHTML, like Gecko) Chrome/121.0.0.0 Safari/537.36 Edg/121.0.0.0" etag="o0dJWZcJ_GPoMVwjE8J4" version="23.1.0" type="github">
  <diagram name="Page-1" id="EWPCgxJgW_Hr5RCxBf1B">
    <mxGraphModel dx="1386" dy="793" grid="1" gridSize="10" guides="1" tooltips="1" connect="1" arrows="1" fold="1" page="1" pageScale="1" pageWidth="850" pageHeight="1100" math="0" shadow="0">
      <root>
        <mxCell id="0" />
        <mxCell id="1" parent="0" />
        <mxCell id="UPW5rW1Ut2nFOO50ReGd-1" value="" style="image;html=1;image=img/lib/clip_art/networking/Wireless_Router_128x128.png" vertex="1" parent="1">
          <mxGeometry x="380" y="280" width="200" height="140" as="geometry" />
        </mxCell>
      </root>
    </mxGraphModel>
  </diagram>
</mxfile>
